<svg width="259" height="279" viewBox="0 0 259 279" fill="none" xmlns="http://www.w3.org/2000/svg">
<path d="M125.218 49.8655C133.564 44.6015 136.608 43.6906 144.99 49.8146C151.954 47.2496 155.287 49.1775 161.161 53.3555C163.996 55.3725 164.203 56.2965 165.376 59.6235C167.945 60.8085 169.501 61.7645 170.735 64.4635C175.597 63.5675 178.997 62.3176 183.477 65.3016C184.268 65.8356 185.044 66.3906 185.806 66.9656C189.51 66.1436 190.846 65.7656 194.142 67.9606C198.396 70.7946 202.526 73.2655 205.464 77.5755C206.034 81.2995 205.09 83.2335 208.618 85.3655C212.629 87.7895 210.766 94.1535 211.16 98.1075C211.349 99.9935 211.853 101.843 211.968 103.764C213.54 105.302 213.794 105.152 214.366 107.088C217.117 110.525 225.212 112.017 225.302 115.118C225.469 120.866 229.803 125.452 230.059 130.839C230.245 134.759 227.254 138.05 225.978 141.489C227.065 147.219 229.411 149.449 224.109 155.159C221.981 157.309 218.977 157.839 216.653 159.599C215.378 160.569 213.507 165.109 211.85 165.229C204.915 165.769 197.968 167.289 191.067 167.689C189.937 167.759 186.918 162.939 185.463 163.889C182.96 164.759 181.204 164.208 178.889 163.458C164.629 176.278 158.428 187.609 157.015 206.939C156.582 212.859 159.805 229.699 156.082 232.429C148.196 238.199 122.315 238.579 115.135 232.129C112.916 227.789 114.528 221.309 114.808 216.069C115.918 195.249 109.321 177.409 91.9937 165.189C86.8317 166.079 86.8077 167.079 82.1487 169.369C77.2547 171.769 75.0057 167.749 72.1637 167.449C70.6677 167.299 66.2107 170.658 62.7347 169.208C60.8737 169.468 57.1437 163.749 56.7597 163.689C44.6057 161.349 45.1917 161.359 44.2807 150.539C43.9557 146.679 34.9447 145.489 42.3037 134.797C34.5447 123.903 43.9777 120.943 48.3417 112.81C50.3487 109.071 48.6927 109.698 52.7907 107.861C59.1867 104.994 55.4337 102.755 63.7297 99.4715C60.9437 96.8165 62.0347 93.0755 64.3187 90.5705C63.7377 89.4665 63.2397 88.3215 62.8277 87.1445C60.3307 79.8585 66.9847 79.3095 68.3107 74.4875C70.1327 67.8605 70.4927 69.8865 76.6117 67.3655C77.3467 67.0625 79.1397 61.5155 81.4177 60.7165C86.9467 58.7765 93.4787 59.9365 99.3327 58.5155C99.9387 58.3645 103.378 59.2725 104.005 59.4375C105.904 56.7005 107.527 56.3895 110.594 55.5685C113.974 48.7085 117.947 47.5505 125.218 49.8655ZM152.493 168.059C155.987 163.219 162.133 154.989 167.3 152.169C161.816 148.159 162.539 143.809 162.692 137.641L161.332 138.719C159.308 144.899 152.935 162.809 152.493 168.059ZM104.634 152.289C108.134 155.529 114.307 162.548 116.941 164.598C116.82 159.508 112.724 148.299 110.501 143.729C108.841 148.119 108.33 149.449 104.634 152.289Z" fill="#30772E"/>
<path d="M147.808 142.079C154.262 143.349 155.198 141.619 161.332 138.719C159.308 144.899 152.935 162.809 152.493 168.059C155.987 163.219 162.133 154.989 167.3 152.169C172.195 160.059 173.416 153.539 176.968 161.019C177.441 162.009 178.127 162.678 178.889 163.458C164.629 176.278 158.428 187.609 157.015 206.939C156.582 212.859 159.805 229.699 156.082 232.429C148.196 238.199 122.315 238.579 115.135 232.129C112.916 227.789 114.528 221.309 114.808 216.069C115.918 195.249 109.321 177.409 91.9937 165.189C94.0137 162.739 93.5107 161.529 95.5007 158.699C100.79 157.769 101.017 158.379 103.302 153.209L103.655 152.399L104.634 152.289C108.134 155.529 114.307 162.549 116.941 164.599C116.82 159.509 112.724 148.299 110.501 143.729L110.055 139.289C112.36 140.219 112.703 140.379 114.805 141.689C116.469 141.879 118.301 141.999 119.901 142.399L121.556 141.499L123.245 142.699C126.494 144.219 130.653 144.699 133.306 141.919L136.093 141.589C139.074 145.029 142.459 143.969 146.139 141.989C146.572 141.999 147.453 141.959 147.808 142.079Z" fill="#83A641"/>
<path d="M147.808 142.079C154.262 143.349 155.198 141.619 161.332 138.719C159.308 144.899 152.935 162.809 152.493 168.059C151.611 168.949 148.963 174.979 148.249 176.509C145.721 167.979 144.139 160.189 145.474 151.249C144.733 147.929 145.485 145.249 146.139 141.989C146.572 141.999 147.453 141.959 147.808 142.079Z" fill="#618933"/>
<path d="M146.139 141.989C146.572 141.999 147.453 141.959 147.808 142.079C147.103 145.779 146.574 147.699 145.474 151.249C144.733 147.929 145.485 145.249 146.139 141.989Z" fill="#DDDACD"/>
<path d="M110.055 139.289C112.36 140.219 112.703 140.379 114.805 141.689C116.469 141.879 118.301 141.999 119.901 142.399L121.556 141.499L123.245 142.699C123.583 145.639 124.318 150.079 123.923 152.869C125.638 160.449 124.512 167.429 123.168 174.989C120.667 171.799 118.264 165.009 116.941 164.599C116.82 159.509 112.724 148.299 110.501 143.729L110.055 139.289Z" fill="#618933"/>
<path d="M121.556 141.499L123.245 142.699C123.583 145.639 124.318 150.079 123.923 152.869C122.7 148.869 121.556 146.229 119.901 142.399L121.556 141.499Z" fill="#DDDACD"/>
<path d="M128.444 194.169C129.442 194.779 129.455 194.909 130.304 195.749C130.788 197.769 130.416 198.178 129.592 200.078L127.674 197.909C127.298 195.539 127.261 196.759 128.444 194.169Z" fill="#618933"/>
<path d="M223.36 141.529C222.321 140.719 221.459 140.009 220.451 139.169C218.391 134.546 223.221 129.455 222.436 125.643C220.429 115.894 212.448 120.541 209.67 118.489C209.97 117.234 213.919 107.677 214.366 107.088C217.117 110.525 225.212 112.017 225.302 115.118C225.469 120.866 229.803 125.452 230.059 130.839C230.245 134.759 227.254 138.05 225.978 141.489C227.065 147.219 229.411 149.449 224.109 155.159C221.981 157.309 218.977 157.839 216.653 159.599C215.378 160.569 213.507 165.109 211.85 165.229C204.915 165.769 197.968 167.289 191.067 167.689C189.937 167.759 186.918 162.939 185.463 163.889C182.96 164.759 181.204 164.208 178.889 163.458C178.127 162.678 177.441 162.009 176.968 161.019C173.416 153.539 172.195 160.059 167.3 152.169C161.816 148.159 162.539 143.809 162.692 137.641C163.876 136.594 164.27 136.673 165.842 136.247L167.559 136.021C173.798 141.329 167.757 141.549 172.24 146.119C173.669 147.169 176.499 150.679 178.129 152.339C180.05 154.449 180.207 153.919 182.869 153.839C186.135 156.519 183.689 159.849 188.119 160.309C190.669 159.459 191.411 158.519 193.496 156.699L193.882 157.099L194.534 157.749C196.609 159.869 197.92 161.899 201.05 161.389C203.029 159.479 203.451 158.709 206.007 158.209C208.03 158.709 208.406 158.829 210.556 158.969C212.228 158.139 212.174 158.269 213.067 156.649C212.638 154.689 212.325 154.239 212.955 152.349C214.741 150.409 215.142 150.269 217.773 149.709L218.783 149.509C221.078 147.699 222.123 144.349 223.36 141.529Z" fill="#144B21"/>
<path d="M105.494 130.857C107.584 134.12 108.626 135.6 110.055 139.289L110.501 143.729C108.841 148.119 108.33 149.449 104.634 152.289L103.655 152.399L103.302 153.209C101.017 158.379 100.79 157.769 95.5007 158.699C93.5107 161.529 94.0137 162.739 91.9937 165.189C86.8317 166.079 86.8077 167.079 82.1487 169.369C77.2547 171.769 75.0057 167.749 72.1637 167.449C70.6677 167.299 66.2107 170.658 62.7347 169.208C60.8737 169.468 57.1437 163.749 56.7597 163.689C44.6057 161.349 45.1917 161.359 44.2807 150.539C43.9557 146.679 34.9447 145.489 42.3037 134.797L44.4577 134.942C46.4147 136.699 47.7537 137.929 49.5357 139.849L49.9277 140.649C47.9487 144.459 47.4367 145.659 50.4087 149.189C51.7477 152.129 50.9937 155.679 55.4817 156.349C56.3397 155.599 57.1927 154.849 58.0427 154.089L58.9117 154.589C59.0347 158.639 58.2477 162.379 63.7067 162.919C65.4607 161.899 66.6747 160.829 68.5717 161.129C74.4277 166.619 74.2877 164.449 80.0717 160.129C89.1017 162.189 90.5817 147.669 100.244 148.469L100.935 148.539C100.174 143.189 102.154 144.079 104.709 139.179C105.279 138.088 105.426 132.455 105.494 130.857Z" fill="#144B21"/>
<path d="M125.218 49.8655C133.564 44.6015 136.608 43.6906 144.99 49.8146C151.954 47.2496 155.287 49.1775 161.161 53.3555C163.996 55.3725 164.203 56.2965 165.376 59.6235C162.913 60.9695 158.644 61.7525 155.781 62.4355C148.903 51.5345 144.458 50.4815 134.804 58.5715C125.27 52.2535 124.923 53.1485 116.319 60.4545C114.354 58.5705 112.73 57.2645 110.594 55.5685C113.974 48.7085 117.947 47.5505 125.218 49.8655Z" fill="#144B21"/>
<path d="M64.3187 90.5706C63.7377 89.4666 63.2397 88.3216 62.8277 87.1446C60.3307 79.8586 66.9847 79.3096 68.3107 74.4876C70.1327 67.8606 70.4927 69.8866 76.6117 67.3656C77.3467 67.0626 79.1397 61.5156 81.4177 60.7166C86.9467 58.7766 93.4787 59.9366 99.3327 58.5156C99.9387 58.3646 103.378 59.2726 104.005 59.4376C105.987 61.0436 107.884 62.7596 109.796 64.4486C107.143 65.2966 105.906 63.6475 105.246 63.9105C101.433 65.4245 104.361 70.2875 97.4247 67.2515C94.4317 65.9415 93.6597 64.2415 90.1057 64.6085C85.7937 67.4785 81.6157 69.9286 77.0107 72.1296C74.6107 73.2766 76.1917 78.5236 74.6047 80.7836L73.2997 80.5676C70.2707 83.4026 69.8797 90.4806 64.3187 90.5706Z" fill="#144B21"/>
<path d="M185.806 66.9656C189.51 66.1436 190.846 65.7656 194.142 67.9606C198.396 70.7946 202.526 73.2656 205.464 77.5756C206.034 81.2996 205.09 83.2336 208.618 85.3656C212.629 87.7896 210.766 94.1536 211.16 98.1076C211.349 99.9936 211.853 101.843 211.968 103.764C209.313 103.924 207.739 103.861 205.404 102.787L205.018 100.898L206.265 98.2695C206.065 96.0025 204.979 95.5626 203.123 93.6026C203.23 90.3706 204.133 85.1276 200.668 83.8176C190.151 86.4626 196.726 80.1186 193.299 76.9176C189.665 73.5246 188.218 76.0876 184.075 71.1286L185.806 66.9656Z" fill="#144B21"/>
<path d="M42.3037 134.797C34.5447 123.903 43.9777 120.943 48.3417 112.81C50.3487 109.071 48.6927 109.698 52.7907 107.861C59.1867 104.994 55.4337 102.755 63.7297 99.4716C65.9527 101.011 68.6337 103.238 69.5247 105.853C67.2717 110.56 59.1757 110.209 56.5097 112.553C54.3927 114.414 50.1307 123.561 48.5247 126.614C48.7097 128.052 48.8187 128.798 48.5457 130.221C47.3267 131.462 45.3287 133.474 44.4577 134.942L42.3037 134.797Z" fill="#144B21"/>
<path d="M56.7967 132.782C57.6787 133.477 58.8687 133.638 59.9037 133.204C59.8717 135.014 59.8167 136.552 59.6827 138.357C60.7547 139.339 60.1737 139.049 61.3457 139.359C63.8417 141.109 64.0927 140.679 65.0727 143.029C64.5637 144.399 64.6107 144.329 63.8867 145.629C60.7017 148.799 62.2157 149.679 59.6557 152.299C56.7147 153.049 54.8357 149.709 53.6287 147.389C52.4047 148.149 51.7567 148.649 50.4087 149.189C47.4367 145.659 47.9487 144.459 49.9277 140.649L49.5357 139.849C52.6087 136.737 53.1697 135.743 56.7967 132.782Z" fill="#1B5523"/>
<path d="M49.9277 140.649C51.9027 141.479 53.5297 142.069 55.3407 143.249L55.6347 144.469C54.9777 145.449 54.3097 146.419 53.6287 147.389C52.4047 148.149 51.7567 148.649 50.4087 149.189C47.4367 145.659 47.9487 144.459 49.9277 140.649Z" fill="#30772E"/>
<path d="M61.3457 139.359C63.8417 141.109 64.0927 140.679 65.0727 143.029C64.5637 144.399 64.6107 144.329 63.8867 145.629L61.9987 146.709C59.6747 146.689 60.7477 146.979 58.7077 145.639C57.6757 143.499 57.9187 144.609 58.0757 142.149C59.1817 140.169 59.3347 140.289 61.3457 139.359Z" fill="#143618"/>
<path d="M170.735 64.4635C175.597 63.5675 178.997 62.3175 183.477 65.3015C184.268 65.8355 185.044 66.3905 185.806 66.9655L184.075 71.1285C181.036 71.1245 177.017 72.7545 174.535 74.5385C173.673 75.8435 173.857 75.9195 173.938 77.5375C173.202 74.6085 173.364 74.6395 171.007 72.6355C170.005 70.9625 169.334 69.2605 168.543 67.4805L168.937 65.5696L170.735 64.4635Z" fill="#144B21"/>
<path d="M175.314 112.886C176.421 110.968 176.128 110.658 177.721 110.095C185.185 118.181 175.57 122.813 174.45 127.937C174.16 130.37 174.075 130.258 172.522 132.258C171.195 133.237 168.696 134.965 167.559 136.021L165.842 136.247C165.684 131.967 172.066 124.465 174.85 118.512L175.314 112.886Z" fill="url(#paint0_linear_5_1069)"/>
<path d="M154.897 124.998C164.275 138.502 148.634 133.721 141.63 133.927C136.209 138.073 138.259 136.29 136.093 141.589L133.306 141.919L132.805 141.049C132.604 138.781 133.551 137.69 134.698 135.679C137.721 136.757 139.455 134.626 140.719 132.086C142.883 133.548 147.085 134.022 149.473 132.856C148.671 131.82 148.553 131.62 148.437 130.314C149.939 127.516 152.075 126.645 154.897 124.998Z" fill="#144B21"/>
<path d="M114.805 141.689C115.776 136.978 119.291 128.532 125.219 133.937C126.187 137.218 124.537 139.939 121.556 141.499L119.901 142.399C118.301 141.999 116.469 141.879 114.805 141.689Z" fill="#144B21"/>
<path d="M205.018 100.898C202.733 102.41 201.279 103.305 198.462 102.345C195.731 99.9856 196.272 97.5446 198.264 94.7846C199.46 93.1256 201.23 93.5996 203.123 93.6026C204.979 95.5626 206.065 96.0026 206.265 98.2696L205.018 100.898Z" fill="#1B5523"/>
<path d="M174.85 118.512C172.587 119.271 170.747 119.964 168.503 119.208C164.995 115.577 167.718 110.11 172.588 110.751C173.469 111.51 174.341 112.245 175.314 112.886L174.85 118.512Z" fill="#144B21"/>
<path d="M178.674 142.929C179.523 143.699 180.704 143.989 181.813 143.699C180.482 145.309 179.916 149.139 178.129 152.339C176.499 150.679 173.669 147.169 172.24 146.119C174.904 144.489 175.754 143.949 178.674 142.929Z" fill="#1B5523"/>
<path d="M178.674 142.929C177.522 141.889 177.227 140.189 177.958 138.818C178.689 137.445 180.259 136.743 181.769 137.115C183.279 137.486 184.345 138.836 184.355 140.389C184.366 141.949 183.319 143.309 181.813 143.699C180.704 143.989 179.523 143.699 178.674 142.929Z" fill="#144B21"/>
<path d="M171.007 72.6356C173.364 74.6396 173.202 74.6085 173.938 77.5375C172.245 79.7005 171.985 80.1096 169.376 80.1016C167.677 78.6396 168.286 79.5546 167.814 77.0706C168.213 74.9066 169.384 74.1766 171.007 72.6356Z" fill="#143618"/>
<path d="M56.7967 132.782C55.7017 131.92 55.3197 130.431 55.8637 129.148C56.4077 127.865 57.7437 127.105 59.1247 127.292C60.5057 127.48 61.5907 128.569 61.7727 129.951C61.9547 131.333 61.1887 132.665 59.9037 133.204C58.8687 133.638 57.6787 133.477 56.7967 132.782Z" fill="#143618"/>
<path d="M161.622 68.3005L168.937 65.5696L168.543 67.4805C164.647 69.8275 161.478 72.9985 158.132 76.0845C159.134 73.3565 160.369 70.9185 161.622 68.3005Z" fill="#1B5523"/>
<path d="M134.698 135.679C136.049 133.836 137.362 131.94 139.468 131.214L140.719 132.086C139.455 134.626 137.721 136.757 134.698 135.679Z" fill="#143618"/>
<path d="M174.45 127.937C176.192 133.142 175.95 128.525 177.275 132.729C175.572 133.717 176.474 133.479 174.456 133.404L172.522 132.258C174.075 130.258 174.16 130.37 174.45 127.937Z" fill="#1B5523"/>
<path d="M176.777 107.997C176.886 104.96 173.838 96.7606 171.044 95.5426C168.54 97.2586 165.367 100.095 162.565 98.3596C161.187 94.8046 163.593 92.3446 166.159 90.1176C172.523 89.0576 172.288 85.1476 176.072 85.3676C179.062 87.9736 178.643 88.6116 177.775 92.4186C179.05 95.3816 180.107 93.2986 181.678 96.0396C183.311 98.8886 181.833 100.267 184.224 102.401C186.339 100.852 186.7 100.396 189.165 99.7946C190.781 100.375 190.723 100.265 191.733 101.633C191.304 105.455 182.36 106.637 178.694 108.526C177.81 108.343 177.588 108.368 176.777 107.997Z" fill="#1B5523"/>
<path d="M184.224 102.401C186.339 100.852 186.7 100.396 189.165 99.7946C190.781 100.375 190.723 100.265 191.733 101.633C191.304 105.455 182.36 106.637 178.694 108.526C177.81 108.343 177.588 108.368 176.777 107.997C178.024 105.534 181.413 102.676 184.224 102.401Z" fill="#144B21"/>
<path d="M67.4737 142.369C69.7027 140.499 70.6337 139.519 73.2937 138.329C75.1647 138.53 75.0287 138.529 76.5547 139.659C77.6477 142.999 75.5107 144.479 73.4007 147.009C75.3807 148.899 76.4637 148.979 76.7607 150.939C76.1697 151.869 74.3477 154.549 74.1047 155.399C72.2187 157.879 71.7067 158.719 68.3817 158.749C66.3447 157.769 67.1287 158.499 66.0767 156.339C66.4307 153.439 66.4487 154.229 68.6877 151.569L69.2357 150.649C70.1097 149.219 70.8697 148.459 72.0077 147.249L71.9297 146.049C70.4507 144.809 68.9657 143.589 67.4737 142.369Z" fill="#1B5523"/>
<path d="M68.6877 151.569C71.4747 153.099 71.8427 153.249 74.1047 155.399C72.2187 157.879 71.7067 158.719 68.3817 158.749C66.3447 157.769 67.1287 158.499 66.0767 156.339C66.4307 153.439 66.4487 154.229 68.6877 151.569Z" fill="#144B21"/>
<path d="M131.403 93.4916C129.546 91.3876 125.857 94.0825 123.486 90.6105L123.825 89.5195C126.895 86.8475 127.885 89.5256 133.164 84.1196L134.419 84.1865C136.896 86.9305 136.532 86.8485 135.333 89.8295L135.837 90.4125C137.841 90.8175 139.149 92.7576 138.772 94.7686C138.395 96.7786 136.473 98.1125 134.458 97.7635C132.443 97.4145 131.082 95.5116 131.403 93.4916Z" fill="#30772E"/>
<path d="M135.837 90.4125C137.841 90.8175 139.149 92.7575 138.772 94.7685C138.395 96.7785 136.473 98.1125 134.458 97.7635C132.443 97.4145 131.082 95.5116 131.403 93.4916C131.563 92.4856 132.126 91.5875 132.963 91.0065C133.8 90.4255 134.838 90.2115 135.837 90.4125Z" fill="#144B21"/>
<path d="M113.923 71.5936C115.491 73.9216 116.988 76.1975 118.686 78.4365L115.601 81.9246C113.837 83.2806 113.721 83.5815 111.518 84.0555C110.19 81.9845 108.087 80.2446 106.246 77.5076C106.81 76.3446 107.037 76.3606 108.028 75.3856C110.55 74.0266 111.62 73.3076 113.923 71.5936Z" fill="#1B5523"/>
<path d="M91.0757 96.4976L96.1567 100.755C98.4987 100.453 99.0537 99.6806 100.826 100.165C101.708 103.343 98.2827 104.29 99.0207 110.528C97.9197 111.666 97.9497 111.727 96.5777 112.469C95.5907 110.824 95.4437 110.918 93.7997 109.836C94.5347 107.926 95.0037 107.153 94.8887 105.091C93.9797 102.854 91.1197 101.188 89.0557 99.6686L91.0757 96.4976Z" fill="url(#paint1_linear_5_1069)"/>
<path d="M190.23 107.393C192.229 109.192 193.821 111.259 196.486 110.612L195.987 112.258L195.798 112.209C192.608 113.545 189.71 116.326 186.996 118.602C185.276 116.956 183.578 115.289 181.9 113.601C184.882 111.612 187.413 109.6 190.23 107.393Z" fill="#1B5523"/>
<path d="M124.349 129.185C127.187 126.142 129.913 122.8 133.972 121.526L135.189 122.523C135.347 126.486 134.827 126.697 132.569 130.147L131.246 132.072C127.568 133.648 126.152 132.597 124.349 129.185Z" fill="#1B5523"/>
<path d="M124.349 129.185C128.073 129.114 128.907 129.31 132.569 130.147L131.246 132.072C127.568 133.648 126.152 132.597 124.349 129.185Z" fill="#144B21"/>
<path d="M67.9306 122.86C67.0156 122.32 66.0916 121.986 65.0786 121.668C63.9926 119.537 64.2256 120.672 64.6306 118.101C67.4806 114.364 71.2066 113.89 75.4006 115.222C76.0496 117.35 76.1446 117.216 75.4456 119.296C73.7956 121.219 73.9336 121.062 71.7676 122.327L71.0546 122.75L70.6006 123.013L70.3036 123.566C69.6846 122.942 68.7906 122.676 67.9306 122.86Z" fill="#1B5523"/>
<path d="M93.4306 118.189L92.7026 117.985C89.6356 117.113 87.9026 116.998 86.4866 114.444C86.7336 111.879 86.4586 110.359 89.0076 109.426C90.8576 109.877 91.8786 110.287 93.7996 109.836C95.4436 110.918 95.5906 110.824 96.5776 112.469L95.7506 113.063L95.3526 117.538L95.2686 119.057L94.6406 119.253L93.4306 118.189Z" fill="#1B5523"/>
<path d="M93.4307 118.189C93.4127 115.645 93.1967 114.433 94.1137 112.132C95.3407 113.896 95.1056 115.158 95.3526 117.538L95.2687 119.057L94.6406 119.253L93.4307 118.189Z" fill="#143618"/>
<path d="M85.1266 132.444C87.4836 133.763 86.8116 132.845 87.7296 134.865L86.5246 136.682C87.3026 139.399 88.7916 139.009 90.0106 141.969C89.6926 144.039 88.6266 144.749 87.1366 146.269C85.0686 146.279 83.1706 145.799 81.9106 144.079C81.3266 141.359 84.2866 137.951 84.2236 137.16C83.9526 133.738 82.8546 136.021 85.1266 132.444Z" fill="#144B21"/>
<path d="M88.6776 89.0975C90.7606 88.8325 89.8096 89.2576 91.4036 87.3416C92.4956 88.4996 93.8366 89.8016 94.7476 91.0656C92.6066 92.6936 92.2876 93.9786 91.0756 96.4976L89.0556 99.6686L88.5326 99.4666L87.8936 97.2595C86.0436 95.4315 87.1136 96.0965 84.4576 95.3685C84.1866 93.0715 84.1616 93.2356 84.9696 91.0706C86.0806 89.5906 86.8726 89.5895 88.6776 89.0975Z" fill="#1B5523"/>
<path d="M84.9697 91.0706C86.0807 89.5906 86.8727 89.5895 88.6777 89.0975L90.0747 90.1605C89.4697 92.5785 88.1487 92.3536 85.9477 92.4446C85.0647 91.3916 85.3347 91.8846 84.9697 91.0706Z" fill="#1B5523"/>
<path d="M84.4576 95.3685C87.1136 96.0965 86.0436 95.4315 87.8936 97.2595L88.5326 99.4666C83.6466 102.004 79.1316 105.042 74.6426 99.6796L77.4406 96.5966C80.6606 96.5136 82.3866 97.0645 84.4576 95.3685Z" fill="#144B21"/>
<path d="M144.253 83.9935C142.368 80.5655 138.505 78.9976 138.03 77.4996C141.036 74.8676 148.478 76.8045 151.322 79.8055L151.043 80.5106C148.802 81.5736 146.468 82.8435 144.253 83.9935Z" fill="#143618"/>
<path d="M191.349 136.859C192.176 137.315 195.752 141.029 196.785 142.009L189.322 145.269C187.946 145.509 187.129 145.169 186.054 144.459C185.025 139.949 187.935 138.633 191.349 136.859Z" fill="#1B5523"/>
<path d="M156.634 114.938C153.719 113.248 149.425 112.544 153.081 107.105C155.454 106.032 154.278 106.171 156.705 106.455C159.687 108.363 160.167 110.045 158.482 113.042L158.564 113.79C157.65 114.438 157.657 114.546 156.634 114.938Z" fill="#1B5523"/>
<path d="M151.322 79.8055C154.072 77.2175 153.931 76.2975 157.31 75.1025L158.862 75.3375C160.408 78.3765 159.1 80.7906 158.032 84.1066C155.075 82.8256 153.762 82.3346 151.043 80.5106L151.322 79.8055Z" fill="#144B21"/>
<path d="M135.334 67.5076C139.058 67.9746 140.607 69.9215 139.748 73.6235C138.149 75.0655 139.061 74.7106 136.926 74.7446C135.068 74.8336 134.72 74.8876 132.821 74.6196C131.228 73.1806 131.656 74.0486 131.444 71.9556C132.486 69.5326 133.195 69.2376 135.334 67.5076Z" fill="#1B5523"/>
<path d="M115.601 81.9246L116.398 83.9396C114.407 84.5086 111.733 87.9685 110.558 89.6365C109.23 91.0785 108.029 92.1716 107.043 93.8356C105.316 94.2626 104.976 94.1486 103.659 93.3126L103.545 92.2405C104.994 89.0145 108.736 86.2605 111.518 84.0555C113.721 83.5815 113.837 83.2806 115.601 81.9246Z" fill="#143618"/>
<path d="M107.043 93.8356C108.029 92.1716 109.23 91.0785 110.558 89.6365C113.776 91.4225 116.267 92.6465 115.225 96.6755C111.959 99.2225 110.307 97.8095 108.062 95.0795L107.434 94.3265C107.303 94.1625 107.173 93.9996 107.043 93.8356Z" fill="#144B21"/>
<path d="M94.6407 119.253L95.2687 119.057C97.6637 122.39 100.904 125.841 98.7787 129.973L97.5457 130.285C93.0837 127.938 93.3727 123.405 94.6407 119.253Z" fill="#144B21"/>
<path d="M150.41 89.2565C152.47 88.7935 154.517 90.0795 154.994 92.1355C155.472 94.1925 154.2 96.2485 152.147 96.7405C150.074 97.2365 147.993 95.9505 147.51 93.8735C147.028 91.7965 148.33 89.7235 150.41 89.2565Z" fill="#1B5523"/>
<path d="M161.075 98.6296C167.432 99.6186 165.773 103.697 162.418 106.993C161.183 106.932 160.772 106.807 159.553 106.568C156.435 103.352 158.491 101.299 161.075 98.6296Z" fill="#143618"/>
<path d="M118.686 78.4365L121.474 77.2496C123.674 78.3916 124.091 78.3556 126.572 78.1906L127.014 78.8196C125.143 81.4416 119.784 84.7436 116.398 83.9396L115.601 81.9246L118.686 78.4365Z" fill="#143618"/>
<path d="M108.703 123.065C106.794 121.431 104.022 122.68 103.243 118.998C106.005 114.482 110.913 115.667 111.59 121.89C110.265 122.802 110.253 123.03 108.703 123.065Z" fill="#1B5523"/>
<path d="M187.323 125.098C189.004 124.017 191.245 124.51 192.317 126.197C193.389 127.884 192.885 130.122 191.192 131.186C189.512 132.241 187.294 131.741 186.229 130.066C185.165 128.392 185.653 126.171 187.323 125.098Z" fill="#144B21"/>
<path d="M74.6427 99.6796L74.5277 98.9586C72.8037 97.3946 72.3177 97.0796 71.0847 95.0316C71.0887 92.9116 70.8887 92.5816 72.0037 90.7816C76.2297 89.9656 76.7437 93.4536 77.4407 96.5966L74.6427 99.6796Z" fill="#144B21"/>
<path d="M196.486 110.612C198.373 109.247 198.223 109.32 200.526 108.943C202.693 109.776 201.825 109.103 203.139 111.135C203.326 113.303 203.393 113.162 202.463 115.113C200.724 116.222 201.652 115.997 199.576 115.779C197.358 114.335 197.426 114.45 195.987 112.258L196.486 110.612Z" fill="#144B21"/>
<path d="M83.4997 122.442C84.7227 122.093 86.0377 122.431 86.9407 123.326C87.8447 124.22 88.1957 125.532 87.8587 126.758C87.5227 127.984 86.5517 128.933 85.3177 129.241C83.4537 129.707 81.5607 128.592 81.0647 126.736C80.5687 124.88 81.6517 122.969 83.4997 122.442Z" fill="#143618"/>
<path d="M206.029 139.179C208.084 139.579 209.401 140.699 209.989 142.639C209.025 145.409 209.267 144.579 206.595 146.719C206.053 146.739 204.859 146.479 204.479 146.189C200.849 143.369 203.954 140.969 206.029 139.179Z" fill="#143618"/>
<path d="M111.59 121.89C113.646 122.732 114.683 122.882 115.796 124.773C115.659 128.837 111.7 128.999 108.834 126.934C108.011 124.59 108.196 125.82 108.703 123.065C110.253 123.03 110.265 122.802 111.59 121.89Z" fill="#143618"/>
<path d="M143.495 116.502C145.152 115.752 147.103 116.478 147.867 118.128C148.631 119.778 147.923 121.735 146.28 122.514C144.616 123.303 142.628 122.584 141.854 120.913C141.08 119.242 141.817 117.261 143.495 116.502Z" fill="#144B21"/>
<path d="M193.621 148.939C195.385 149.499 196.172 149.939 197.187 151.399C197.251 153.499 195.979 154.749 194.712 156.559C192.313 155.599 191.428 155.249 190.44 152.889C191.338 150.309 191.244 150.989 193.621 148.939Z" fill="#143618"/>
<path d="M153.632 63.1336C155.38 63.2846 156.695 64.7906 156.61 66.5436C156.525 68.2956 155.07 69.6675 153.316 69.6495C152.12 69.6375 151.027 68.9715 150.466 67.9155C149.905 66.8595 149.967 65.5806 150.627 64.5836C151.288 63.5856 152.44 63.0296 153.632 63.1336Z" fill="#143618"/>
<path d="M91.4036 87.3416C92.9666 85.3866 92.8506 85.4605 95.1626 84.5165C97.5896 84.7055 96.5246 84.2906 98.4456 85.8646C99.0176 88.1426 99.0746 87.0296 98.1006 89.3096C96.5316 90.5346 96.6446 90.5726 94.7476 91.0656C93.8366 89.8016 92.4956 88.4996 91.4036 87.3416Z" fill="#144B21"/>
<path d="M114.292 63.7045C115.393 63.2625 116.647 63.4566 117.562 64.2106C118.478 64.9646 118.908 66.1586 118.685 67.3236C118.461 68.4886 117.619 69.4386 116.489 69.8006C114.828 70.3326 113.043 69.4536 112.451 67.8126C111.859 66.1706 112.673 64.3555 114.292 63.7045Z" fill="#144B21"/>
<path d="M200.868 121.922C202.576 121.523 204.289 122.564 204.724 124.263C205.158 125.962 204.153 127.697 202.463 128.166C201.339 128.478 200.133 128.158 199.311 127.329C198.49 126.5 198.181 125.291 198.504 124.169C198.827 123.047 199.731 122.188 200.868 121.922Z" fill="#144B21"/>
<path d="M145.041 67.6016C147.611 68.2446 148.17 68.2765 149.68 70.0225C149.156 72.4885 149.005 71.9456 146.77 74.0696C144.844 73.5316 143.554 72.7615 142.54 71.0245C142.83 68.7265 142.613 69.5286 145.041 67.6016Z" fill="#144B21"/>
<path d="M78.7746 152.609C79.8906 152.179 81.1516 152.409 82.0476 153.199C82.9426 153.989 83.3246 155.219 83.0386 156.379C82.7516 157.539 81.8446 158.439 80.6836 158.729C79.0366 159.129 77.3606 158.179 76.8556 156.559C76.3496 154.949 77.1906 153.209 78.7746 152.609Z" fill="#143618"/>
<path d="M58.7707 116.543C60.7677 117.15 61.8567 117.752 62.6057 119.62C61.6647 121.933 61.6897 121.364 59.3467 123.117C57.6317 123.336 57.1927 122.891 56.0497 121.901C55.4107 118.88 56.8067 118.22 58.7707 116.543Z" fill="#144B21"/>
<path d="M131.323 110.454C132.732 109.575 134.581 109.94 135.551 111.289C136.52 112.638 136.276 114.507 134.994 115.562C134.087 116.309 132.839 116.489 131.757 116.029C130.675 115.569 129.939 114.545 129.848 113.373C129.757 112.201 130.326 111.076 131.323 110.454Z" fill="#144B21"/>
<path d="M120.829 98.2025C121.809 97.6175 123.028 97.6105 124.015 98.1825C125.002 98.7545 125.602 99.8165 125.581 100.957C125.56 102.098 124.923 103.139 123.915 103.675C122.41 104.476 120.541 103.93 119.703 102.445C118.865 100.96 119.365 99.0765 120.829 98.2025Z" fill="#144B21"/>
<path d="M106.246 77.5076C103.726 78.1296 104.918 78.2025 102.535 77.3815C101.057 75.2625 101.458 76.4155 101.37 73.7665C102.57 71.7235 101.73 72.3386 103.856 71.7086C106.008 72.2356 106.64 73.5736 108.028 75.3856C107.037 76.3606 106.81 76.3446 106.246 77.5076Z" fill="#143618"/>
<path d="M82.6076 76.0116C83.5356 75.2946 84.7886 75.1636 85.8436 75.6746C86.8986 76.1846 87.5746 77.2476 87.5886 78.4196C87.6026 79.5916 86.9526 80.6706 85.9096 81.2056C84.4886 81.9356 82.7466 81.4626 81.8906 80.1146C81.0336 78.7666 81.3446 76.9886 82.6076 76.0116Z" fill="#144B21"/>
<path d="M144.373 99.8726C145.926 99.1586 147.763 99.8425 148.471 101.398C149.179 102.954 148.488 104.788 146.93 105.491C145.38 106.189 143.557 105.503 142.852 103.956C142.148 102.408 142.828 100.583 144.373 99.8726Z" fill="#144B21"/>
<path d="M120.451 118.342C121.938 117.727 123.647 118.36 124.377 119.794C125.106 121.228 124.611 122.982 123.238 123.822C122.249 124.428 121.004 124.427 120.015 123.82C119.027 123.214 118.462 122.104 118.554 120.948C118.646 119.792 119.379 118.785 120.451 118.342Z" fill="#143618"/>
<path d="M204.001 147.739C206.256 148.369 206.512 149.029 206.936 151.059C206.234 153.389 205.844 153.499 203.929 154.959C202.255 153.919 201.585 153.739 200.886 151.909C201.704 149.319 201.762 149.889 204.001 147.739Z" fill="#144B21"/>
<path d="M105.587 107.958C107.547 109.532 107.639 110.187 107.687 112.486C106.388 114.91 106.956 114.096 104.471 115.712C102.97 114.214 102.393 113.882 101.854 111.814C102.825 109.556 103.348 109.717 105.587 107.958Z" fill="#144B21"/>
<path d="M94.3087 138.421C95.8517 137.827 97.5877 138.563 98.2327 140.089C98.8787 141.609 98.2007 143.369 96.7007 144.059C95.6857 144.529 94.4947 144.409 93.5937 143.749C92.6927 143.089 92.2247 141.979 92.3737 140.869C92.5227 139.759 93.2647 138.824 94.3087 138.421Z" fill="#144B21"/>
<path d="M112.496 101.426C114.174 101.304 115.632 102.57 115.745 104.249C115.858 105.929 114.582 107.379 112.903 107.482C111.237 107.584 109.801 106.322 109.689 104.656C109.577 102.991 110.831 101.548 112.496 101.426Z" fill="#144B21"/>
<path d="M181.682 79.1076C183.256 78.8306 184.775 79.8216 185.155 81.3746C185.536 82.9266 184.648 84.5076 183.124 84.9906C182.045 85.3326 180.864 85.0456 180.063 84.2446C179.261 83.4446 178.972 82.2646 179.312 81.1846C179.653 80.1046 180.566 79.3036 181.682 79.1076Z" fill="#144B21"/>
<path d="M180.049 129.171C180.98 128.566 182.169 128.523 183.142 129.059C184.115 129.595 184.713 130.623 184.698 131.734C184.683 132.845 184.058 133.857 183.071 134.367C181.647 135.103 179.895 134.593 179.089 133.207C178.283 131.82 178.705 130.046 180.049 129.171Z" fill="#144B21"/>
<path d="M192.196 86.9465C193.694 86.4335 195.332 87.1765 195.933 88.6405C196.534 90.1055 195.891 91.7845 194.466 92.4725C193.464 92.9555 192.277 92.8435 191.384 92.1825C190.49 91.5205 190.038 90.4175 190.208 89.3185C190.378 88.2205 191.144 87.3065 192.196 86.9465Z" fill="#143618"/>
<path d="M206.648 131.661C208.893 132.321 209.146 132.541 210.004 134.494C209.762 136.645 209.086 137.022 207.565 138.584C205.375 137.903 205.2 137.767 204.265 136.312C204.345 134.269 205.387 133.331 206.648 131.661Z" fill="#144B21"/>
<path d="M75.4007 115.222C74.5487 114.555 74.1377 113.469 74.3347 112.405C74.5317 111.34 75.3047 110.473 76.3387 110.155C77.3737 109.837 78.4997 110.121 79.2607 110.891C80.3387 111.982 80.3827 113.722 79.3627 114.867C78.3427 116.012 76.6087 116.167 75.4007 115.222Z" fill="#144B21"/>
<path d="M141.186 109.759C143.411 109.937 143.437 109.909 144.482 111.516C144.192 113.812 143.623 114.128 142.047 115.815C139.647 115.458 139.532 115.354 138.388 113.896C139.013 111.31 139.008 111.969 141.186 109.759Z" fill="#144B21"/>
<path d="M192.304 117.114C193.764 116.944 195.116 117.907 195.433 119.342C195.75 120.778 194.929 122.22 193.533 122.681C192.495 123.024 191.352 122.746 190.588 121.964C189.823 121.183 189.569 120.035 189.934 119.004C190.299 117.974 191.218 117.24 192.304 117.114Z" fill="#144B21"/>
<path d="M126.611 60.6556C127.477 59.9846 128.652 59.8735 129.627 60.3705C130.603 60.8665 131.205 61.8826 131.171 62.9766C131.137 64.0716 130.475 65.0486 129.47 65.4846C128.163 66.0516 126.637 65.5576 125.911 64.3306C125.185 63.1046 125.485 61.5296 126.611 60.6556Z" fill="#143618"/>
<path d="M211.445 121.385C212.943 121.161 214.346 122.174 214.605 123.666C214.864 125.159 213.884 126.585 212.399 126.879C211.406 127.076 210.384 126.719 209.73 125.947C209.075 125.175 208.89 124.109 209.246 123.161C209.602 122.214 210.444 121.534 211.445 121.385Z" fill="#144B21"/>
<path d="M143.274 59.4306C144.721 59.1146 146.163 59.9856 146.556 61.4136C146.95 62.8416 146.158 64.3285 144.753 64.7985C143.774 65.1255 142.694 64.8856 141.947 64.1746C141.199 63.4626 140.905 62.3966 141.183 61.4026C141.461 60.4096 142.266 59.6506 143.274 59.4306Z" fill="#144B21"/>
<path d="M183.271 87.9996C184.21 87.5546 185.32 87.6765 186.141 88.3135C186.962 88.9505 187.356 89.9945 187.159 91.0155C186.962 92.0355 186.208 92.8585 185.209 93.1445C183.828 93.5385 182.376 92.8085 181.87 91.4645C181.363 90.1205 181.973 88.6136 183.271 87.9996Z" fill="#1B5523"/>
<path d="M81.2267 82.3815L82.7887 82.8965L83.2697 83.9766C82.3777 86.0096 81.4957 86.3826 79.6937 87.6766C77.7277 86.7026 77.1027 86.4546 77.1587 84.3616C78.3797 82.8896 79.3527 82.8665 81.2267 82.3815Z" fill="#144B21"/>
<path d="M158.564 113.79C160.108 115.132 160.485 115.193 161.054 117.154C160.599 119.124 161.112 118.336 159.364 119.527C156.956 119.552 157.955 119.933 156.191 118.561C155.666 116.159 155.588 117.332 156.634 114.938C157.657 114.546 157.65 114.438 158.564 113.79Z" fill="#144B21"/>
<path d="M91.3697 72.3096C92.7437 71.9476 94.1537 72.7605 94.5287 74.1315C94.9037 75.5025 94.1047 76.9195 92.7377 77.3085C91.3517 77.7025 89.9107 76.8896 89.5297 75.4996C89.1497 74.1096 89.9757 72.6766 91.3697 72.3096Z" fill="#144B21"/>
<path d="M67.9307 122.86C68.7907 122.676 69.6847 122.942 70.3037 123.566C71.1347 124.403 71.2927 125.698 70.6867 126.71C70.0807 127.723 68.8657 128.196 67.7347 127.859C66.6047 127.523 65.8457 126.463 65.8917 125.284C65.9377 124.105 66.7767 123.107 67.9307 122.86Z" fill="#143618"/>
<path d="M99.0897 76.8185C100.741 77.4275 100.648 77.3435 101.828 78.6385C101.7 80.8825 101.178 80.8496 99.6487 83.0566L98.3257 82.6465L97.4697 81.0126C97.7247 77.8996 97.1877 79.2405 99.0897 76.8185Z" fill="#144B21"/>
<path d="M95.0897 131.156C96.9377 131.852 96.2337 131.274 97.2757 132.946C97.1087 135.051 96.5347 135.473 95.2347 137.132C93.5587 136.142 93.4757 136.25 92.3837 134.692C92.7947 132.552 93.0077 132.996 95.0897 131.156Z" fill="#30772E"/>
<path d="M213.585 141.479C214.362 140.999 215.35 141.019 216.102 141.539C216.854 142.059 217.227 142.969 217.052 143.869C216.877 144.769 216.187 145.469 215.296 145.669C214.201 145.919 213.091 145.329 212.668 144.299C212.245 143.259 212.633 142.069 213.585 141.479Z" fill="#143618"/>
<path d="M190.484 95.0195C191.262 94.3285 192.446 94.3755 193.167 95.1245C193.888 95.8735 193.889 97.0585 193.17 97.8095C192.678 98.3225 191.944 98.5255 191.259 98.3375C190.573 98.1495 190.045 97.6015 189.883 96.9085C189.722 96.2165 189.952 95.4915 190.484 95.0195Z" fill="#1B5523"/>
<path d="M165.511 122.584C166.137 122.233 166.908 122.275 167.493 122.69C168.077 123.106 168.37 123.821 168.244 124.527C168.119 125.233 167.597 125.804 166.905 125.992C166.001 126.238 165.055 125.772 164.701 124.905C164.346 124.037 164.694 123.042 165.511 122.584Z" fill="#144B21"/>
<path d="M75.6957 129.854C76.6797 129.943 77.3647 130.143 78.3307 130.36L78.7597 131.357L77.8007 133.472L75.5667 133.103L74.8937 132.107L75.6957 129.854Z" fill="#143618"/>
<path d="M143.294 85.8365L144.125 86.6426C144.168 88.5196 143.969 88.0665 142.218 89.9335C141.503 89.2195 141.841 89.7005 141.48 88.3325L143.294 85.8365Z" fill="#143618"/>
<path d="M133.3 0.0815148C135.827 0.00651479 138.355 -0.0164925 140.884 0.0115075C174.409 0.406507 206.415 14.0595 229.904 37.9845C239.228 47.6145 247.06 58.8505 253.044 70.8405C255.806 76.4325 264.286 92.2395 251.504 91.7475C247.328 91.5875 243.294 77.9755 241.278 74.2445C226.523 46.3305 201.138 25.5435 170.863 16.5845C139.87 7.5105 106.316 12.3075 78.1777 27.7865C48.4097 43.9915 26.3987 71.4755 17.0907 104.066C6.91748 139.619 11.9527 173.738 29.8257 205.838C52.1947 242.848 90.7797 267.298 134.317 266.488C139.279 266.388 147.022 265.899 149.259 271.419C149.417 276.299 145.841 278.249 141.511 278.569C108.883 280.949 73.1947 268.989 48.5687 247.559C19.9527 222.629 2.56338 187.239 0.316583 149.349C-2.20972 111.68 10.4627 74.5665 35.5017 46.3075C60.9747 17.6175 95.3057 2.34151 133.3 0.0815148Z" fill="#30772E"/>
<defs>
<linearGradient id="paint0_linear_5_1069" x1="180.395" y1="121.117" x2="164.04" y2="125.11" gradientUnits="userSpaceOnUse">
<stop stop-color="#0E3D19"/>
<stop offset="1" stop-color="#16551F"/>
</linearGradient>
<linearGradient id="paint1_linear_5_1069" x1="99.7454" y1="107.724" x2="90.8249" y2="98.1201" gradientUnits="userSpaceOnUse">
<stop stop-color="#0A2F14"/>
<stop offset="1" stop-color="#0F471C"/>
</linearGradient>
</defs>
</svg>
