<svg width="298" height="287" viewBox="0 0 298 287" fill="none" xmlns="http://www.w3.org/2000/svg">
<path d="M79.3835 55.0929C101.877 53.3869 105.607 74.1989 118.367 87.5279C124.22 93.2759 129.894 99.1219 136.545 104.145C178.962 136.174 205.33 205.819 153.618 242.341C150.117 244.813 143.236 244.057 138.732 247.215C135.036 249.75 130.076 251.076 125.653 251.508C77.7815 255.924 46.7205 212.771 42.7125 169.129C40.8605 148.964 45.9185 132.981 46.5395 113.655C47.1815 93.6439 36.8905 62.8559 67.9785 60.7019C72.4485 57.0659 73.5205 56.2029 79.3835 55.0929Z" fill="#83A641"/>
<path d="M79.7375 58.1849C100.951 56.9019 103.721 78.206 115.925 89.734C137.938 110.531 158.372 125.077 171.407 154.032C184.794 183.771 180.909 220.313 152.045 239.121C149.983 240.45 143.008 240.86 139.364 242.666C132.073 247.326 126.938 248.131 118.64 248.157C68.1335 248.318 41.1675 192.129 46.1715 147.59C47.4205 137.028 48.7245 128.511 49.8525 117.8C51.4825 102.307 43.4695 80.8899 55.4395 68.3749C59.2965 64.3419 64.3175 64.1699 69.3835 64.3769C73.2095 61.0449 74.8765 59.5299 79.7375 58.1849Z" fill="#FD7921"/>
<path d="M69.2805 64.6329C71.0985 66.3529 76.6785 79.1729 78.7205 82.5099C82.1095 88.0459 86.0615 94.9499 90.3345 99.9009C103.367 114.999 121.311 124.798 134.247 140.237C147.61 156.186 159.298 182.241 149.479 202.625C144.729 212.484 138.692 217.748 137.793 229.295L137.736 230.099C138.546 233.291 139.858 236.657 140.975 239.782C139.344 237.217 136.26 232.239 134.069 230.516C119.797 219.29 107.531 226.048 92.2975 211.266C76.1625 196.003 68.7755 169.381 71.4695 147.736C74.1565 126.147 79.6895 106.309 73.2125 84.6619C71.6485 79.4319 69.4155 70.0379 69.2805 64.6329Z" fill="#FAAD26"/>
<path d="M87.1985 129.42C86.7905 127.062 86.8995 126.772 87.9385 124.589L88.4205 123.599C83.9265 122.729 81.4285 119.371 82.8285 115.433C85.4275 108.121 98.0365 111.465 91.9035 121.94L92.5635 122.6C95.8045 122.268 95.2185 120.363 99.3565 119.164C103.571 120.417 103.569 122.662 103.232 126.273L104.118 127.367C106.103 126.243 108.595 126.579 110.212 128.19C111.828 129.801 112.173 132.292 111.054 134.281L112.631 135.614C118.641 135.402 125.467 138.366 120.798 145.346C125.091 146.702 125.933 147.562 125.68 152.176L125.658 152.793C133.885 149.017 139.063 156.315 132.301 162.273L135.688 162.477C141.181 166.588 141.63 170.888 136.36 175.546L136.983 175.919C139.335 175.741 141.952 175.566 143.914 177.071C145.95 180.874 143.009 183.927 140.688 186.879C141.808 189.886 142.846 190.527 142.646 193.245C140.655 195.601 139.793 195.549 136.791 196.19C136.79 200.347 137.949 199.095 136.524 202.46C134.475 204.175 133.582 204.174 130.891 204.854L130.616 205.25L131.122 205.911C134.075 209.831 135.605 212.899 131.07 216.359C126.481 219.859 123.474 214.698 121.839 211.483C121.922 210.024 121.989 210.529 121.609 209.105L120.542 209.573C118.248 209.997 117.511 210.334 115.347 209.422C113.391 207.712 113.066 206.06 112.132 203.562C108.754 212.054 99.9935 212.081 100.998 201.934L100.394 201.426C97.3375 201.657 95.2515 201.519 94.1785 198.49C94.7785 195.491 95.0245 195.044 96.6065 192.384L97.0115 191.718L96.1065 189.537L95.3405 188.565C91.7585 188.922 90.5695 190.597 87.5935 187.95C84.7735 180.647 87.6035 179.015 94.7095 179.749L95.5565 179.841L96.2675 178.867C95.7335 176.192 95.6415 176.048 96.2925 173.472C98.8745 171.363 99.1485 171.371 102.474 171.13C100.354 168.905 100.091 168.484 99.3385 165.501L99.5035 164.994C98.5075 161.488 97.8025 161.49 94.5875 160.252L95.8395 159.742C93.8115 157.827 93.8145 157.977 93.1635 155.32L92.6015 155.467C90.5375 152.058 90.3405 152.011 86.3305 151.367L86.2765 151.239C79.0755 150.424 77.6895 146.304 82.7395 141.334L83.2965 139.243C81.4645 138.6 80.1325 137.006 79.8255 135.09C79.5185 133.174 80.2845 131.243 81.8235 130.06C83.3615 128.876 85.4245 128.631 87.1985 129.42Z" fill="#1D1E14"/>
<path d="M102.474 171.13C103.995 171.286 105.939 171.548 107.428 171.595C108.002 176.171 107.409 174.854 110.448 178.597L110.115 179.017C107.637 182.199 107.593 182.861 109.845 186.152C108.986 188.409 101.845 189.396 106.243 197.342C117.161 203.934 114.458 190.887 116.373 189.081L117.248 189.743C115.693 197.874 119.989 194.062 120.97 200.45L120.042 201.233C121.827 205.019 122.185 205.651 120.542 209.573C118.248 209.997 117.511 210.334 115.347 209.422C113.391 207.712 113.066 206.06 112.132 203.562C108.754 212.054 99.9935 212.081 100.998 201.934L100.394 201.426C97.3375 201.657 95.2515 201.519 94.1785 198.49C94.7785 195.491 95.0245 195.044 96.6065 192.384L97.0115 191.718L96.1065 189.537L95.3405 188.565C91.7585 188.922 90.5695 190.597 87.5935 187.95C84.7735 180.647 87.6035 179.015 94.7095 179.749L95.5565 179.841L96.2675 178.867C95.7335 176.192 95.6415 176.048 96.2925 173.472C98.8745 171.363 99.1485 171.371 102.474 171.13Z" fill="#FAAD26"/>
<path d="M102.474 171.13C103.995 171.286 105.939 171.548 107.428 171.595C107.219 173.092 106.91 174.87 106.829 176.351C107.373 178.428 107.348 178.275 106.754 180.347C104.813 182.502 104.258 182.637 101.625 184.046C99.4285 185.154 96.7045 186.975 96.1065 189.537L95.3405 188.565C91.7585 188.922 90.5695 190.597 87.5935 187.95C84.7735 180.647 87.6035 179.015 94.7095 179.749L95.5565 179.841L96.2675 178.867C95.7335 176.192 95.6415 176.048 96.2925 173.472C98.8745 171.363 99.1485 171.371 102.474 171.13Z" fill="#1D1E14"/>
<path d="M102.474 171.13C103.995 171.286 105.939 171.548 107.428 171.595C107.219 173.092 106.91 174.87 106.829 176.351C104.241 174.382 104.171 174.019 102.474 171.13Z" fill="#FBB52D"/>
<path d="M101.625 184.046C103.559 185.529 104.155 185.742 104.941 188.067C104.708 189.763 103.806 190.443 102.638 191.735C102.359 195.92 107.174 195.683 101.233 200.728L100.394 201.426C97.3375 201.657 95.2515 201.519 94.1785 198.49C94.7785 195.491 95.0245 195.044 96.6065 192.384L97.0115 191.718L96.1065 189.537C96.7045 186.975 99.4285 185.154 101.625 184.046Z" fill="#13120D"/>
<path d="M100.998 201.934C105.527 197.857 108.547 197.747 111.865 203.297L112.132 203.562C108.754 212.054 99.9935 212.081 100.998 201.934Z" fill="#1D1E14"/>
<path d="M111.865 203.297C112.49 200.492 112.607 199.808 115.388 198.839C117.86 199.255 118.02 199.57 120.041 201.233C121.826 205.019 122.184 205.651 120.541 209.573C118.247 209.997 117.51 210.334 115.346 209.422C113.39 207.712 113.066 206.06 112.132 203.562L111.865 203.297Z" fill="#1D1E14"/>
<path d="M110.128 143.351C109.218 141.197 108.835 139.52 106.955 138.24C104.672 137.882 103.871 138.498 101.864 139.407C100.842 136.655 99.4785 132.305 97.9135 129.923C96.8645 128.325 97.7835 130.359 97.0125 128.428C100.177 126.898 99.4125 128.88 103.232 126.273L104.118 127.367C106.103 126.243 108.595 126.579 110.212 128.19C111.828 129.801 112.173 132.292 111.054 134.281L112.631 135.614C118.641 135.402 125.467 138.366 120.798 145.346C118.896 145.401 118.76 145.252 116.961 145.838C114.864 149.661 113.621 148.667 113.456 153.804L113.422 155.037C111.46 150.962 110.996 152.353 108.126 149.558C110.434 147.268 110.214 146.432 110.128 143.351Z" fill="#FAAD26"/>
<path d="M112.631 135.614C118.641 135.402 125.467 138.366 120.798 145.346C118.896 145.401 118.76 145.252 116.961 145.838C113.588 145.289 113.442 145.135 110.563 143.215C109.665 139.217 109.911 138.657 112.631 135.614Z" fill="#13120D"/>
<path d="M104.117 127.367C106.102 126.243 108.594 126.579 110.211 128.19C111.827 129.801 112.172 132.292 111.053 134.281C110 136.155 107.882 137.163 105.764 136.801C103.646 136.438 101.984 134.782 101.615 132.665C101.245 130.548 102.247 128.427 104.117 127.367Z" fill="#1D1E14"/>
<path d="M125.658 152.793C133.885 149.017 139.062 156.315 132.3 162.273L135.688 162.477C131.561 163.504 131.224 163.509 128.947 167.009L128.641 166.32C126.86 162.531 126.506 162.787 122.38 162.3C124.113 159.337 123.224 158.796 121.966 155.956C122.388 153.912 123.43 153.839 125.679 152.176L125.658 152.793Z" fill="#1D1E14"/>
<path d="M125.679 152.176L125.658 152.793C123.084 158.862 125.144 163.089 132.3 162.273L135.688 162.477C131.561 163.504 131.224 163.509 128.947 167.009L128.641 166.32C126.86 162.531 126.506 162.787 122.38 162.3C124.113 159.337 123.224 158.796 121.966 155.956C122.388 153.912 123.43 153.839 125.679 152.176Z" fill="#FBB52D"/>
<path d="M128.948 167.009C131.225 163.509 131.561 163.504 135.688 162.477C141.181 166.588 141.63 170.888 136.36 175.546L131.607 175.344C130.082 171.791 129.412 171 128.948 167.009Z" fill="#13120D"/>
<path d="M83.2965 139.243C81.4645 138.6 80.1325 137.006 79.8255 135.09C79.5185 133.174 80.2845 131.243 81.8235 130.06C83.3615 128.876 85.4245 128.631 87.1985 129.42C88.1375 129.838 88.9345 130.521 89.4925 131.384C90.7175 133.284 90.6015 135.752 89.2015 137.527C87.8025 139.302 85.4295 139.992 83.2965 139.243Z" fill="#13120D"/>
<path d="M122.379 162.3C126.505 162.787 126.86 162.531 128.641 166.32C127.558 169.746 126.774 170.979 123.482 172.776L122.929 172.801C116.741 171.136 116.271 168.087 119.601 163.076L122.379 162.3Z" fill="#13120D"/>
<path d="M89.4925 131.384L91.3775 132.929C91.5625 138.238 93.2745 139.466 96.2325 143.63C95.2315 143.746 94.7935 143.548 93.7485 143.36C92.4605 143.821 91.1775 144.297 89.8995 144.787C88.2955 143.424 88.2205 143.336 86.9535 141.652C84.8265 141.143 84.9235 141.159 82.7395 141.334L83.2965 139.243C85.4295 139.992 87.8025 139.302 89.2015 137.527C90.6015 135.752 90.7175 133.284 89.4925 131.384Z" fill="#FAAD26"/>
<path d="M131.974 178.554L133.083 179.749C133.407 182.524 133.812 183.771 134.824 186.384C132.778 187.79 131.263 189.061 130.17 191.348L129.779 191.257C127.552 188.458 127.296 188.174 123.647 188.057L123.021 188.043C128.628 185.37 130.792 184.901 131.974 178.554Z" fill="#FAAD26"/>
<path d="M122.93 172.801C120.3 174.515 119.831 174.657 117.633 177.174L117.149 177.738L116.486 177.702C116.492 177.663 116.846 175.353 116.872 175.277C118.4 170.828 114.548 166.856 116.903 162.332L119.602 163.076C116.272 168.087 116.742 171.136 122.93 172.801Z" fill="#FAAD26"/>
<path d="M128.641 166.32L128.947 167.009C129.411 171 130.081 171.791 131.606 175.344L131.053 176.753C127.827 175.435 126.218 174.988 123.482 172.776C126.774 170.979 127.558 169.746 128.641 166.32Z" fill="#FAAD26"/>
<path d="M86.2765 151.239C88.3115 149.615 87.9865 149.287 89.9595 149.341C93.1985 153.215 93.8705 152.437 98.3075 149.883C99.8775 150.843 99.7495 150.812 100.632 152.454C96.2775 152.244 96.0985 151.754 93.1635 155.32L92.6015 155.467C90.5375 152.058 90.3405 152.011 86.3305 151.367L86.2765 151.239Z" fill="#FBB52D"/>
<path d="M113.456 153.804C114.553 154.366 115.595 154.913 116.799 155.2C116.932 157.711 114.906 160.341 112.451 160.862L111.674 160.19C111.5 157.65 112.02 157.73 113.422 155.037L113.456 153.804Z" fill="#FBB52D"/>
<path d="M95.8395 159.742C98.8905 160.376 100.793 160.057 103.666 160.478C102.053 162.535 100.535 163.55 99.5035 164.994C98.5075 161.488 97.8025 161.49 94.5875 160.252L95.8395 159.742Z" fill="#FBB52D"/>
<path d="M120.97 200.45L123.02 204.652C124.718 208.075 122.945 208.594 121.839 211.483C121.922 210.024 121.989 210.529 121.609 209.105L120.542 209.573C122.185 205.651 121.827 205.019 120.042 201.233L120.97 200.45Z" fill="#F69819"/>
<path d="M129.778 191.257L130.169 191.348L132.597 194.778L129.644 196.178C128.853 197.583 128.682 198.106 127.504 199.215L126.606 198.56C126.257 195.405 128.723 197.388 129.778 191.257Z" fill="#FAAD26"/>
<path d="M131.054 176.753L131.607 175.344L136.36 175.546L136.983 175.919C135.299 177.335 134.421 177.954 133.083 179.749L131.974 178.554L131.054 176.753Z" fill="#FBB52D"/>
<path d="M94.5875 160.252C97.8025 161.49 98.5075 161.488 99.5035 164.994L99.3385 165.501C100.091 168.484 100.353 168.905 102.473 171.13C99.1485 171.371 98.8745 171.363 96.2925 173.472C94.9745 174.854 90.3545 177.266 88.4815 177.428C82.3445 177.924 77.8085 170.524 82.2925 165.735C84.8715 162.981 86.3265 164.172 89.5035 163.565C91.5875 161.189 91.6515 160.937 94.5875 160.252Z" fill="#13120D"/>
<path d="M99.3385 165.501C100.091 168.484 100.354 168.905 102.474 171.13C99.1485 171.371 98.8745 171.363 96.2925 173.472L95.7435 171.434C94.2345 170.342 93.9465 170.213 92.1035 169.94L92.3075 169.738C95.5415 169.097 96.6465 168.435 98.8445 166.048L99.3385 165.501Z" fill="#FBB52D"/>
<path d="M92.6015 155.467C88.8425 170.571 72.4915 155.205 86.3305 151.367C90.3405 152.011 90.5375 152.058 92.6015 155.467Z" fill="#1D1E14"/>
<path d="M204.707 108.44C211.548 108.194 216.028 107.972 222.751 109.174C224.296 109.519 226.824 109.99 228.19 110.551L228.919 110.505C234.433 112.214 237.939 113.46 243.179 115.923C244.265 116.578 246.378 117.761 247.311 118.465L248.395 118.751C254.848 124.422 258.077 127.434 262.056 135.12L264.169 139.716C267.218 150.785 267.75 154.295 267.689 165.547C267.561 167.694 267.484 170.453 267.101 172.521C266.665 176.835 266.391 179.573 265.427 183.777C256.653 187.3 253.296 188.97 245.464 194.168L243.341 195.692C237.245 200.833 231.945 205.765 227.173 212.221C223.559 217.306 221.479 220.693 218.405 226.09C216.112 232.163 215.092 235.788 213.412 241.998L212.927 243.989L211.523 250.794C208.777 250.707 205.25 250.698 202.578 250.433C199.806 250.039 196.8 249.375 194.029 248.83C190.023 247.585 187.863 246.592 184.061 244.856L179.383 242.223C174.651 239.215 173.049 237.68 169.354 233.67C173.246 227.25 175.815 224.295 179.215 217.252L182.291 209.889L182.456 209.412L183.418 206.031L185 198.924L185.475 195.053L185.86 188.887C185.669 181.922 185.407 176.13 184.145 169.276C183.653 166.522 182.719 163.488 181.966 160.764L181.113 158.386C179.28 152.677 176.844 147.846 173.91 142.66L172.23 139.785L169.258 135.151C172.573 128.584 174.086 126.306 179.152 120.989L183.052 117.538C189.787 112.286 194.241 110.631 202.306 108.424L202.85 108.637L204.707 108.44Z" fill="#FBB52D"/>
<path d="M204.707 108.44C211.548 108.194 216.028 107.972 222.751 109.174C224.296 109.519 226.824 109.99 228.19 110.551L228.919 110.505C234.433 112.214 237.939 113.46 243.179 115.923C244.265 116.578 246.378 117.761 247.311 118.465L248.395 118.751C254.848 124.422 258.077 127.434 262.056 135.12L264.169 139.716C260.75 142.345 256.348 145.141 253.259 147.766C256.901 153.379 262.785 160.901 265.731 166.254C260.411 161.553 256.965 156.692 252.931 150.87C249.164 154.093 242.898 160.471 238.295 160.727C236.307 159.788 237.062 160.47 235.908 158.655C237.208 155.311 247.323 150.194 251.028 147.572C246.87 141.425 239.489 133.103 234.614 126.669C230.242 129.354 223.347 133.114 219.417 135.802L209.853 122.044L190.011 133.348C192.827 138.123 202.945 156.209 207.182 157.677C207.641 155.008 207.42 152.83 208.945 150.889C210.862 150.388 209.966 150.313 211.732 151.017C215.69 156.005 217.719 159.349 222.209 164.033C225.838 162.481 229.441 160.867 233.015 159.193L237.655 162.956L224.698 171.951C221.13 166.966 217.408 161.927 214.148 156.749C209.231 160.619 192.853 168.329 186.703 170.967C187.888 172.115 189.889 174.167 191.116 175.086C189.114 177.536 189.713 176.192 189.162 179.238C187.454 180.054 187.495 179.925 186.472 181.489C186.249 183.773 186.601 187.084 185.86 188.887C185.669 181.922 185.407 176.13 184.145 169.276C183.653 166.522 182.719 163.488 181.966 160.764L181.113 158.386C179.28 152.677 176.844 147.846 173.91 142.66L172.23 139.785L169.258 135.151C172.573 128.584 174.086 126.306 179.152 120.989L183.052 117.538C189.787 112.286 194.241 110.631 202.306 108.424L202.85 108.637L204.707 108.44Z" fill="#F69819"/>
<path d="M179.152 120.989C180.983 125.172 183.236 129.162 186.222 132.638L187.727 131.505L188.64 131.805C188.566 135.881 186.168 133.429 190.38 140.01C192.431 143.216 194.176 146.604 196.581 149.759C194.898 152.01 184.017 157.594 181.113 158.386C179.28 152.677 176.844 147.846 173.91 142.66L172.23 139.785L169.258 135.151C172.573 128.584 174.086 126.306 179.152 120.989Z" fill="#FBB52D"/>
<path d="M179.152 120.989C180.983 125.172 183.236 129.162 186.222 132.638C181.101 134.376 176.481 136.36 172.23 139.785L169.258 135.151C172.573 128.584 174.086 126.306 179.152 120.989Z" fill="#FBB52D"/>
<path d="M186.223 132.638C185.129 136.624 177.749 140.281 173.911 142.66L172.231 139.785C176.482 136.36 181.102 134.376 186.223 132.638Z" fill="#F69819"/>
<path d="M247.312 118.465L248.396 118.751C254.849 124.422 258.078 127.434 262.057 135.12C259.736 136.314 253.262 141.546 250.844 143.44C246.639 136.437 242.325 131.246 236.865 125.227C240.467 123.443 244.046 120.834 247.312 118.465Z" fill="#FBB52D"/>
<path d="M202.307 108.424L202.851 108.637C204.642 113.439 205.46 115.452 207.966 119.87C201.491 122.973 195.192 126.433 189.101 130.234C187.221 125.909 184.951 121.958 183.053 117.538C189.788 112.286 194.242 110.631 202.307 108.424Z" fill="#FBB52D"/>
<path d="M204.708 108.44C211.549 108.194 216.029 107.972 222.752 109.174L224.648 112.314C223.473 113.848 213.062 119.525 210.574 120.969L209.605 120.943L209.25 120.162L207.966 119.87C205.46 115.452 204.642 113.439 202.851 108.637L204.708 108.44Z" fill="#FBB52D"/>
<path d="M202.851 108.637L204.708 108.44C205.656 111.126 208.832 118.456 209.25 120.162L207.966 119.87C205.46 115.452 204.642 113.439 202.851 108.637Z" fill="#FAAD26"/>
<path d="M181.966 160.764C184.535 158.691 194.594 152.443 197.513 152.147C198.884 155.399 199.481 156.741 201.351 159.824C195.413 162.863 189.745 165.628 184.145 169.276C183.653 166.522 182.719 163.488 181.966 160.764Z" fill="#FBB52D"/>
<path d="M228.92 110.505C234.434 112.214 237.94 113.46 243.18 115.923C241.116 120.346 238.389 122.353 234.747 125.482C231.946 121.923 225.433 115.421 226.858 111.015L228.191 110.551L228.92 110.505Z" fill="#FBB52D"/>
<path d="M260.712 169.292C262.973 172.347 263.335 172.354 267.102 172.521C266.666 176.835 266.392 179.573 265.428 183.777C256.654 187.3 253.297 188.97 245.465 194.168C242.668 189.762 237.032 183.965 233.336 180.221C239.982 176.565 252.913 172.342 260.712 169.292Z" fill="#FBB52D"/>
<path d="M214.055 194.173C218.643 191.177 228.082 184.717 232.574 182.51C235.739 187.353 238.647 192.216 243.342 195.692C237.246 200.833 231.946 205.765 227.174 212.221C224.969 209.759 216.725 197.756 214.055 194.173Z" fill="#FBB52D"/>
<path d="M247.095 173.264C251.331 171.004 255.849 169.735 260.421 168.277L260.711 169.292C252.912 172.342 239.981 176.565 233.335 180.221C237.031 183.965 242.667 189.762 245.464 194.168L243.341 195.692C238.646 192.216 235.738 187.353 232.573 182.51C228.081 184.717 218.642 191.177 214.054 194.173C216.724 197.756 224.968 209.759 227.173 212.221C223.559 217.306 221.479 220.693 218.405 226.09C215.234 224.941 213.325 224.221 212.642 220.787C214.032 216.981 220.107 214.492 223.899 212.455C220.901 209.351 213.233 198.331 210.545 194.439C211.604 193.548 211.972 192.078 211.455 190.794C215.592 189.074 226.603 182.253 230.988 179.652C228.924 177.153 226.354 175.17 228.267 172.047C231.582 171.166 233.192 173.329 235.513 175.412C239.708 173.249 239.712 172.303 243.086 169.811C245.307 170.302 245.215 171.031 247.095 173.264Z" fill="#F69819"/>
<path d="M179.383 242.223C186.906 236.933 192.014 238.574 199.915 233.077C201.844 235.242 207.678 242.199 209.678 243.399L209.432 240.792C211.244 240.92 211.69 241.299 213.412 241.998L212.927 243.989L211.523 250.794C208.777 250.707 205.25 250.698 202.578 250.433C199.806 250.039 196.8 249.375 194.029 248.83C190.023 247.585 187.863 246.592 184.061 244.856L179.383 242.223Z" fill="#F69819"/>
<path d="M194.436 237.294C195.797 238.768 197.475 240.475 198.602 242.078C197.087 244.304 195.491 246.578 194.03 248.83C190.024 247.585 187.864 246.592 184.062 244.856C187.747 241.958 190.525 239.847 194.436 237.294Z" fill="#FAAD26"/>
<path d="M202.579 250.433C204.524 247.744 209.428 243.806 212.928 243.989L211.524 250.794C208.778 250.707 205.251 250.698 202.579 250.433Z" fill="#FBB52D"/>
<path d="M193.713 199.922C196.133 198.505 201.666 194.928 204.279 194.926C201.376 197.636 185.757 208.274 182.456 209.412L183.418 206.031L185 198.924L185.475 195.053C188.874 196.241 191.141 197.26 193.713 199.922Z" fill="#F69819"/>
<path d="M185.001 198.924L189.022 202.684C187.462 203.705 185.072 205.461 183.419 206.031L185.001 198.924Z" fill="#FAAD26"/>
<path d="M179.216 217.252L182.292 209.889C185.061 211.509 194.019 221.437 192.906 224.536C187.775 224.427 189.61 219.574 184.292 219.768C182.671 219.827 180.555 218.207 179.216 217.252Z" fill="#F69819"/>
<path d="M260.422 168.277C263.226 165.64 263.925 165.457 267.69 165.547C267.562 167.694 267.485 170.453 267.102 172.521C263.335 172.354 262.973 172.347 260.712 169.292L260.422 168.277Z" fill="#F69819"/>
<path d="M210.546 194.439C209.484 195.331 207.968 195.437 206.791 194.702C205.615 193.967 205.046 192.558 205.382 191.213C205.718 189.867 206.883 188.891 208.267 188.795C209.651 188.7 210.938 189.507 211.456 190.794C211.973 192.078 211.605 193.548 210.546 194.439Z" fill="#F69819"/>
<path d="M191.117 175.086C193.677 175.356 192.637 174.831 194.375 176.655C194.508 178.848 194.785 177.862 193.418 179.682C191.345 180.315 191.778 180.439 189.163 179.238C189.714 176.192 189.115 177.536 191.117 175.086Z" fill="#F69819"/>
<path d="M205.971 217.676C208.872 218.059 211.388 221.259 213.294 223.372L201.112 230.953C200.284 231.516 200.813 231.3 199.424 231.25C196.852 229.132 195.65 226.875 193.829 224.082C198.244 221.928 201.764 220.179 205.971 217.676Z" fill="#F69819"/>
<path d="M216.872 140.831C218.077 140.245 219.529 140.742 220.122 141.943C220.715 143.145 220.226 144.599 219.028 145.199C217.82 145.804 216.352 145.31 215.754 144.099C215.156 142.888 215.658 141.422 216.872 140.831Z" fill="#F69819"/>
<path d="M136.764 0.153934C137.528 0.0879344 138.293 0.0449295 139.059 0.0239295C156.686 -0.446071 188.503 6.02693 203.402 17.7179C204.535 18.7069 205.729 20.9859 205.266 22.4569C201.844 33.3259 190.526 23.2079 184.544 20.8569C181.197 19.5409 179.185 18.8979 176.299 17.9319C146.073 7.74792 113.009 10.2439 84.6545 24.8509C53.6525 40.4959 29.2685 69.8189 18.5715 102.749C7.54029 135.931 10.2166 172.144 26.0055 203.343C42.8845 236.331 68.8325 258.536 103.973 269.844C114.884 272.893 126.166 274.408 137.494 274.345C142.615 274.313 150.833 273.731 155.602 274.359C157.398 275.518 158.897 277.113 159.161 279.253C160.056 286.508 146.204 286.381 142.291 286.494C105.124 287.563 71.4675 274.595 44.6525 248.665C16.7025 222.048 0.618594 185.318 0.0123937 146.727C-0.498106 107.234 14.7805 69.1719 42.4555 40.9929C67.9545 14.9709 100.35 0.614934 136.764 0.153934Z" fill="#F82D4B"/>
<path d="M244.152 27.2409C245.944 37.9659 246.873 44.8909 246.777 55.9439C255.356 49.8559 263.023 46.6619 273.73 46.2299C265.408 55.2929 258.494 62.7019 253.984 74.3859C265.264 71.3249 270.889 70.1599 282.158 73.9969C284.537 74.9489 285.39 74.8079 286.661 76.5199C285.276 77.9869 285.016 77.6799 282.777 78.3869L280.256 79.1129C271.993 82.9949 267.605 85.7889 260.703 91.8879C268.251 92.5619 273.474 93.0469 279.283 98.6449C262.771 101.258 256.959 103.609 248.396 118.751L247.312 118.465C246.379 117.761 244.266 116.578 243.18 115.923C237.94 113.46 234.434 112.214 228.92 110.505L228.191 110.551C226.825 109.99 224.297 109.519 222.752 109.174C216.029 107.972 211.549 108.194 204.708 108.44L202.851 108.637L202.307 108.424C198.612 92.9039 194.453 86.2339 179.82 78.4229C189.077 76.2229 193.617 76.9159 202.505 79.4879C197.303 67.4979 191.377 61.4889 182.645 52.2369C196.644 52.6459 204.075 56.0059 215.036 64.3789C214.53 51.2989 212.354 44.7929 208.208 32.6519C215.855 36.2319 225.272 42.4649 228.487 50.5839C229.862 49.5389 235.789 38.4699 237.772 35.4109C239.681 32.5249 241.815 29.7929 244.152 27.2409Z" fill="#1B5523"/>
<path d="M251.885 92.1719C254.737 93.4979 257.036 91.2689 260.702 91.8879C268.25 92.5619 273.473 93.0469 279.282 98.6449C262.77 101.258 256.958 103.609 248.395 118.751L247.311 118.465C246.378 117.761 244.265 116.578 243.179 115.923C237.939 113.46 234.433 112.214 228.919 110.505C231.802 101.581 248.842 95.9889 251.885 92.1719Z" fill="#144B21"/>
<path d="M208.208 32.6519C215.855 36.2319 225.272 42.4649 228.487 50.5839L228.577 52.2929C226.694 56.8959 222.543 66.3889 221.437 70.8259C219.715 68.8029 216.992 66.2979 215.036 64.3789C214.53 51.2989 212.354 44.7929 208.208 32.6519Z" fill="#144B21"/>
<path d="M228.577 52.2929C231.725 55.5619 233.628 63.8969 234.816 68.4209C232.064 73.6249 229.395 78.5139 227.095 83.9509C225.069 79.3119 223.274 75.5969 220.932 71.1079L221.437 70.8259C222.543 66.3889 226.694 56.8959 228.577 52.2929Z" fill="#30772E"/>
<path d="M251.885 92.172C256.638 86.688 273.054 70.6779 280.256 79.1129C271.993 82.9949 267.605 85.789 260.703 91.888C257.037 91.269 254.737 93.498 251.885 92.172Z" fill="#143618"/>
<path d="M217.924 266.148C214.806 256.523 220.893 234.212 225.697 224.811C234.385 207.619 249.696 194.704 268.105 189.037C274.746 186.935 289.943 183.928 296.265 186.108C297.682 187.683 298.067 189.162 297.815 191.335C295.299 213.03 286.057 233.632 269.253 247.949C257.046 258.35 235.154 268.373 218.776 266.376L217.924 266.148Z" fill="#144B21"/>
<path d="M265.207 214.883C261.798 219.526 257.232 224.235 253.247 228.437C242.729 239.526 232.967 251.562 222.448 262.601L221.854 260.634C229.296 247.693 253.106 224.428 265.207 214.883Z" fill="#143618"/>
<path d="M217.924 266.148C218.274 263.304 219.618 262.803 221.854 260.634L222.448 262.601C220.976 264.675 220.764 265.736 218.776 266.376L217.924 266.148Z" fill="#143618"/>
</svg>
